<svg id="expnaded" xmlns="http://www.w3.org/2000/svg" viewBox="0 0 96 96"><path d="M63.43,94H37a8.9,8.9,0,0,1-8.77-7.62L20.69,32.77a1,1,0,0,1,.24-.79,1,1,0,0,1,.75-.35h57.1a1,1,0,0,1,.75.35,1,1,0,0,1,.24.79L72.2,86.38A8.9,8.9,0,0,1,63.43,94ZM22.83,33.63,30.24,86.1A6.89,6.89,0,0,0,37,92h26.4a6.89,6.89,0,0,0,6.79-5.9l7.41-52.47Z"/><path d="M21.68,29.81a1,1,0,0,1-.94-.67,11.36,11.36,0,0,1,7-14.49L62,2.64a11.38,11.38,0,0,1,14.49,7,1,1,0,0,1,0,.77,1,1,0,0,1-.57.51L22,29.75A1,1,0,0,1,21.68,29.81ZM65.78,4a9.26,9.26,0,0,0-3.09.53l-34.32,12a9.39,9.39,0,0,0-6,11L74.25,9.35A9.4,9.4,0,0,0,65.78,4Z"/><path d="M38.4,13a1,1,0,0,1-.44-.1,1,1,0,0,1-.51-.57l-.29-.83a5,5,0,0,1,3.08-6.39l6-2.11a5,5,0,0,1,6.4,3.08l.29.83a1,1,0,0,1-.61,1.27L38.73,12.92A1.26,1.26,0,0,1,38.4,13Zm9.52-8.28a2.92,2.92,0,0,0-1,.17L40.9,7A3,3,0,0,0,39,10.7L50.73,6.6A3,3,0,0,0,47.92,4.69Z"/><path d="M42.3,56.89a1,1,0,0,1-.35-.06,1,1,0,0,1-.59-1.29c.38-1,3.87-10,8.91-10,3.36,0,6,4,7.63,7.34a1,1,0,0,1-1.8.87c-1.92-4-4-6.21-5.83-6.21-3.09,0-6.19,6.45-7,8.71A1,1,0,0,1,42.3,56.89Z"/><path d="M58.82,57.47a1,1,0,0,1-.36-.07l-4.38-1.69a1,1,0,0,1-.14-1.8l5.24-3a1,1,0,0,1,1.07,0,1,1,0,0,1,.41,1l-.86,4.72a1,1,0,0,1-.5.69A1,1,0,0,1,58.82,57.47ZM56.75,54.6l1.3.5.26-1.4Z"/><path d="M43,75c-3.15,0-6.94-.58-8.4-3.1C32.89,69,35,64.75,37.11,61.67a1,1,0,1,1,1.66,1.12c-2.46,3.63-3.36,6.6-2.46,8.15,1.54,2.68,8.68,2.14,11.06,1.74a1,1,0,0,1,.33,2A29.58,29.58,0,0,1,43,75Z"/><path d="M40.5,64.7a1,1,0,0,1-.5-.13l-5.24-3a1,1,0,0,1,.17-1.81l4.51-1.61a1,1,0,0,1,1.32.79l.72,4.63a1,1,0,0,1-.42,1A1,1,0,0,1,40.5,64.7Zm-2.87-3.8,1.55.89L39,60.42Z"/><path d="M57.21,75.34c-.72,0-1.42,0-2.08-.07a1,1,0,0,1-.93-1.07,1,1,0,0,1,1.07-.93c4.37.32,7.4-.39,8.29-1.94,1.55-2.68-2.49-8.59-4-10.45a1,1,0,1,1,1.54-1.27c.7.84,6.74,8.35,4.22,12.72C63.92,74.72,60.45,75.34,57.21,75.34Z"/><path d="M55.2,78.36a1,1,0,0,1-.65-.24L50.9,75a1,1,0,0,1-.35-.77,1,1,0,0,1,.37-.77l3.65-2.94a1,1,0,0,1,1.06-.12,1,1,0,0,1,.57.9v6a1,1,0,0,1-.58.91A1.06,1.06,0,0,1,55.2,78.36Zm-2.08-4.08,1.08.92V73.41Z"/></svg>